<svg width="917" height="576" viewBox="0 0 917 576" fill="none" xmlns="http://www.w3.org/2000/svg">
<path d="M135.275 198.834C134.491 198.834 133.763 198.694 133.091 198.414C132.419 198.106 131.831 197.686 131.327 197.154C130.823 196.622 130.431 196.006 130.151 195.306C129.871 194.606 129.731 193.836 129.731 192.996C129.731 192.156 129.871 191.386 130.151 190.686C130.431 189.958 130.823 189.342 131.327 188.838C131.831 188.306 132.419 187.9 133.091 187.62C133.763 187.312 134.491 187.158 135.275 187.158C136.059 187.158 136.787 187.312 137.459 187.62C138.159 187.9 138.761 188.306 139.265 188.838C139.769 189.342 140.161 189.958 140.441 190.686C140.721 191.386 140.861 192.156 140.861 192.996C140.861 193.836 140.721 194.606 140.441 195.306C140.161 196.006 139.769 196.622 139.265 197.154C138.761 197.686 138.159 198.106 137.459 198.414C136.787 198.694 136.059 198.834 135.275 198.834ZM170.024 204V176.616H176.786L181.196 188.796C181.476 189.608 181.742 190.448 181.994 191.316C182.246 192.156 182.512 192.996 182.792 193.836H182.96C183.24 192.996 183.492 192.156 183.716 191.316C183.968 190.448 184.234 189.608 184.514 188.796L188.84 176.616H195.56V204H189.932V193.962C189.932 193.29 189.96 192.548 190.016 191.736C190.072 190.924 190.142 190.112 190.226 189.3C190.31 188.46 190.394 187.648 190.478 186.864C190.562 186.052 190.646 185.31 190.73 184.638H190.562L188.336 191.148L184.43 201.606H181.028L177.122 191.148L174.938 184.638H174.77C174.854 185.31 174.938 186.052 175.022 186.864C175.106 187.648 175.19 188.46 175.274 189.3C175.358 190.112 175.428 190.924 175.484 191.736C175.54 192.548 175.568 193.29 175.568 193.962V204H170.024ZM206.762 204.504C205.81 204.504 204.942 204.336 204.158 204C203.402 203.692 202.758 203.258 202.226 202.698C201.694 202.11 201.274 201.438 200.966 200.682C200.686 199.926 200.546 199.1 200.546 198.204C200.546 196.02 201.47 194.312 203.318 193.08C205.166 191.848 208.148 191.022 212.264 190.602C212.208 189.678 211.928 188.95 211.424 188.418C210.948 187.858 210.136 187.578 208.988 187.578C208.092 187.578 207.196 187.746 206.3 188.082C205.432 188.418 204.494 188.88 203.486 189.468L201.26 185.394C202.604 184.582 204.004 183.924 205.46 183.42C206.944 182.916 208.512 182.664 210.164 182.664C212.852 182.664 214.896 183.434 216.296 184.974C217.724 186.486 218.438 188.852 218.438 192.072V204H213.398L212.978 201.858H212.81C211.914 202.642 210.976 203.286 209.996 203.79C209.016 204.266 207.938 204.504 206.762 204.504ZM208.862 199.716C209.562 199.716 210.164 199.562 210.668 199.254C211.172 198.946 211.704 198.512 212.264 197.952V194.298C210.08 194.606 208.568 195.054 207.728 195.642C206.888 196.23 206.468 196.93 206.468 197.742C206.468 198.414 206.678 198.918 207.098 199.254C207.546 199.562 208.134 199.716 208.862 199.716ZM202.646 178.254L207.182 172.752H213.482L218.018 178.254L215.666 180.438L210.416 176.574H210.248L204.998 180.438L202.646 178.254ZM209.618 213.45C208.61 213.45 207.784 213.142 207.14 212.526C206.524 211.938 206.216 211.168 206.216 210.216C206.216 209.264 206.524 208.48 207.14 207.864C207.784 207.276 208.61 206.982 209.618 206.982C210.626 206.982 211.438 207.276 212.054 207.864C212.698 208.48 213.02 209.264 213.02 210.216C213.02 211.168 212.698 211.938 212.054 212.526C211.438 213.142 210.626 213.45 209.618 213.45ZM230.944 204.504C229.656 204.504 228.55 204.308 227.626 203.916C226.73 203.524 225.988 202.978 225.4 202.278C224.84 201.578 224.42 200.738 224.14 199.758C223.888 198.75 223.762 197.644 223.762 196.44V187.998H220.906V183.42L224.098 183.168L224.812 177.624H229.936V183.168H234.934V187.998H229.936V196.356C229.936 197.532 230.174 198.386 230.65 198.918C231.154 199.422 231.812 199.674 232.624 199.674C232.96 199.674 233.296 199.632 233.632 199.548C233.996 199.464 234.318 199.366 234.598 199.254L235.564 203.748C235.004 203.916 234.346 204.084 233.59 204.252C232.834 204.42 231.952 204.504 230.944 204.504ZM247.409 204V174.558H253.415V191.442H253.583L260.177 183.168H266.897L259.589 191.736L267.443 204H260.765L256.061 195.894L253.415 198.876V204H247.409ZM270.418 204V174.558H276.592V181.782L276.298 185.52C277.082 184.82 277.992 184.176 279.028 183.588C280.064 182.972 281.296 182.664 282.724 182.664C284.992 182.664 286.63 183.406 287.638 184.89C288.674 186.374 289.192 188.432 289.192 191.064V204H283.018V191.862C283.018 190.35 282.808 189.314 282.388 188.754C281.996 188.194 281.352 187.914 280.456 187.914C279.672 187.914 279 188.096 278.44 188.46C277.88 188.796 277.264 189.286 276.592 189.93V204H270.418ZM299.663 204.504C298.711 204.504 297.843 204.336 297.059 204C296.303 203.692 295.659 203.258 295.127 202.698C294.595 202.11 294.175 201.438 293.867 200.682C293.587 199.926 293.447 199.1 293.447 198.204C293.447 196.02 294.371 194.312 296.219 193.08C298.067 191.848 301.049 191.022 305.165 190.602C305.109 189.678 304.829 188.95 304.325 188.418C303.849 187.858 303.037 187.578 301.889 187.578C300.993 187.578 300.097 187.746 299.201 188.082C298.333 188.418 297.395 188.88 296.387 189.468L294.161 185.394C295.505 184.582 296.905 183.924 298.361 183.42C299.845 182.916 301.413 182.664 303.065 182.664C305.753 182.664 307.797 183.434 309.197 184.974C310.625 186.486 311.339 188.852 311.339 192.072V204H306.299L305.879 201.858H305.711C304.815 202.642 303.877 203.286 302.897 203.79C301.917 204.266 300.839 204.504 299.663 204.504ZM301.763 199.716C302.463 199.716 303.065 199.562 303.569 199.254C304.073 198.946 304.605 198.512 305.165 197.952V194.298C302.981 194.606 301.469 195.054 300.629 195.642C299.789 196.23 299.369 196.93 299.369 197.742C299.369 198.414 299.579 198.918 299.999 199.254C300.447 199.562 301.035 199.716 301.763 199.716ZM298.865 180.228L296.891 178.044L300.797 174.18H305.669L309.575 178.044L307.601 180.228L303.317 177.498H303.149L298.865 180.228ZM309.029 176.952L308.609 174.852C309.001 174.74 309.309 174.614 309.533 174.474C309.757 174.306 309.869 174.026 309.869 173.634C309.869 173.242 309.673 172.934 309.281 172.71C308.917 172.486 308.203 172.332 307.139 172.248L307.727 169.644C310.023 169.728 311.619 170.064 312.515 170.652C313.439 171.24 313.901 172.024 313.901 173.004C313.901 173.676 313.761 174.25 313.481 174.726C313.229 175.174 312.879 175.552 312.431 175.86C312.011 176.168 311.507 176.406 310.919 176.574C310.331 176.742 309.701 176.868 309.029 176.952ZM322.819 204.504C320.551 204.504 318.899 203.762 317.863 202.278C316.855 200.794 316.351 198.736 316.351 196.104V183.168H322.525V195.306C322.525 196.818 322.735 197.854 323.155 198.414C323.575 198.974 324.233 199.254 325.129 199.254C325.913 199.254 326.571 199.072 327.103 198.708C327.635 198.344 328.209 197.756 328.825 196.944V183.168H334.999V204H329.959L329.497 201.102H329.371C328.475 202.166 327.509 203.006 326.473 203.622C325.465 204.21 324.247 204.504 322.819 204.504ZM349.344 204V176.616H366.606V181.824H355.518V188.166H365.01V193.374H355.518V204H349.344ZM374.516 204.504C373.564 204.504 372.696 204.336 371.912 204C371.156 203.692 370.512 203.258 369.98 202.698C369.448 202.11 369.028 201.438 368.72 200.682C368.44 199.926 368.3 199.1 368.3 198.204C368.3 196.02 369.224 194.312 371.072 193.08C372.92 191.848 375.902 191.022 380.018 190.602C379.962 189.678 379.682 188.95 379.178 188.418C378.702 187.858 377.89 187.578 376.742 187.578C375.846 187.578 374.95 187.746 374.054 188.082C373.186 188.418 372.248 188.88 371.24 189.468L369.014 185.394C370.358 184.582 371.758 183.924 373.214 183.42C374.698 182.916 376.266 182.664 377.918 182.664C380.606 182.664 382.65 183.434 384.05 184.974C385.478 186.486 386.192 188.852 386.192 192.072V204H381.152L380.732 201.858H380.564C379.668 202.642 378.73 203.286 377.75 203.79C376.77 204.266 375.692 204.504 374.516 204.504ZM376.616 199.716C377.316 199.716 377.918 199.562 378.422 199.254C378.926 198.946 379.458 198.512 380.018 197.952V194.298C377.834 194.606 376.322 195.054 375.482 195.642C374.642 196.23 374.222 196.93 374.222 197.742C374.222 198.414 374.432 198.918 374.852 199.254C375.3 199.562 375.888 199.716 376.616 199.716ZM400.487 204.504C399.031 204.504 397.673 204.266 396.413 203.79C395.181 203.286 394.103 202.572 393.179 201.648C392.255 200.724 391.527 199.59 390.995 198.246C390.463 196.874 390.197 195.32 390.197 193.584C390.197 191.848 390.491 190.308 391.079 188.964C391.667 187.592 392.451 186.444 393.431 185.52C394.439 184.596 395.601 183.896 396.917 183.42C398.233 182.916 399.605 182.664 401.033 182.664C402.321 182.664 403.455 182.874 404.435 183.294C405.443 183.714 406.339 184.246 407.123 184.89L404.225 188.88C403.245 188.068 402.307 187.662 401.411 187.662C399.899 187.662 398.709 188.194 397.841 189.258C396.973 190.322 396.539 191.764 396.539 193.584C396.539 195.404 396.973 196.846 397.841 197.91C398.737 198.974 399.857 199.506 401.201 199.506C401.873 199.506 402.517 199.366 403.133 199.086C403.777 198.778 404.379 198.414 404.939 197.994L407.375 202.026C406.339 202.922 405.219 203.566 404.015 203.958C402.811 204.322 401.635 204.504 400.487 204.504ZM419.155 204.504C417.671 204.504 416.285 204.266 414.997 203.79C413.709 203.286 412.589 202.572 411.637 201.648C410.685 200.696 409.943 199.548 409.411 198.204C408.879 196.86 408.613 195.32 408.613 193.584C408.613 191.904 408.893 190.392 409.453 189.048C410.013 187.676 410.741 186.528 411.637 185.604C412.561 184.652 413.611 183.924 414.787 183.42C415.963 182.916 417.181 182.664 418.441 182.664C419.925 182.664 421.213 182.916 422.305 183.42C423.425 183.924 424.349 184.624 425.077 185.52C425.833 186.416 426.393 187.48 426.757 188.712C427.121 189.916 427.303 191.232 427.303 192.66C427.303 193.22 427.275 193.752 427.219 194.256C427.163 194.76 427.107 195.138 427.051 195.39H414.577C414.857 196.902 415.473 198.022 416.425 198.75C417.405 199.45 418.595 199.8 419.995 199.8C421.479 199.8 422.977 199.338 424.489 198.414L426.547 202.152C425.483 202.88 424.293 203.454 422.977 203.874C421.689 204.294 420.415 204.504 419.155 204.504ZM414.535 191.316H422.053C422.053 190.14 421.787 189.188 421.255 188.46C420.723 187.732 419.827 187.368 418.567 187.368C417.587 187.368 416.719 187.69 415.963 188.334C415.235 188.978 414.759 189.972 414.535 191.316ZM442.489 204.504C441.565 204.504 440.627 204.28 439.675 203.832C438.751 203.356 437.883 202.67 437.071 201.774H436.903L436.399 204H431.569V174.558H437.743V181.782L437.575 184.974C438.387 184.246 439.255 183.686 440.179 183.294C441.131 182.874 442.097 182.664 443.077 182.664C444.337 182.664 445.471 182.916 446.479 183.42C447.487 183.924 448.341 184.638 449.041 185.562C449.769 186.458 450.315 187.564 450.679 188.88C451.071 190.168 451.267 191.61 451.267 193.206C451.267 194.998 451.015 196.594 450.511 197.994C450.035 199.394 449.377 200.584 448.537 201.564C447.725 202.516 446.787 203.244 445.723 203.748C444.687 204.252 443.609 204.504 442.489 204.504ZM441.061 199.464C442.125 199.464 443.035 198.988 443.791 198.036C444.547 197.056 444.925 195.488 444.925 193.332C444.925 189.58 443.721 187.704 441.313 187.704C440.081 187.704 438.891 188.334 437.743 189.594V198.12C438.303 198.624 438.863 198.974 439.423 199.17C439.983 199.366 440.529 199.464 441.061 199.464ZM464.591 204.504C463.275 204.504 462.001 204.266 460.769 203.79C459.537 203.286 458.445 202.572 457.493 201.648C456.569 200.724 455.827 199.59 455.267 198.246C454.707 196.874 454.427 195.32 454.427 193.584C454.427 191.848 454.707 190.308 455.267 188.964C455.827 187.592 456.569 186.444 457.493 185.52C458.445 184.596 459.537 183.896 460.769 183.42C462.001 182.916 463.275 182.664 464.591 182.664C465.907 182.664 467.167 182.916 468.371 183.42C469.603 183.896 470.681 184.596 471.605 185.52C472.557 186.444 473.313 187.592 473.873 188.964C474.433 190.308 474.713 191.848 474.713 193.584C474.713 195.32 474.433 196.874 473.873 198.246C473.313 199.59 472.557 200.724 471.605 201.648C470.681 202.572 469.603 203.286 468.371 203.79C467.167 204.266 465.907 204.504 464.591 204.504ZM464.591 199.506C465.851 199.506 466.803 198.974 467.447 197.91C468.091 196.846 468.413 195.404 468.413 193.584C468.413 191.764 468.091 190.322 467.447 189.258C466.803 188.194 465.851 187.662 464.591 187.662C463.303 187.662 462.337 188.194 461.693 189.258C461.077 190.322 460.769 191.764 460.769 193.584C460.769 195.404 461.077 196.846 461.693 197.91C462.337 198.974 463.303 199.506 464.591 199.506ZM487.888 204.504C486.572 204.504 485.298 204.266 484.066 203.79C482.834 203.286 481.742 202.572 480.79 201.648C479.866 200.724 479.124 199.59 478.564 198.246C478.004 196.874 477.724 195.32 477.724 193.584C477.724 191.848 478.004 190.308 478.564 188.964C479.124 187.592 479.866 186.444 480.79 185.52C481.742 184.596 482.834 183.896 484.066 183.42C485.298 182.916 486.572 182.664 487.888 182.664C489.204 182.664 490.464 182.916 491.668 183.42C492.9 183.896 493.978 184.596 494.902 185.52C495.854 186.444 496.61 187.592 497.17 188.964C497.73 190.308 498.01 191.848 498.01 193.584C498.01 195.32 497.73 196.874 497.17 198.246C496.61 199.59 495.854 200.724 494.902 201.648C493.978 202.572 492.9 203.286 491.668 203.79C490.464 204.266 489.204 204.504 487.888 204.504ZM487.888 199.506C489.148 199.506 490.1 198.974 490.744 197.91C491.388 196.846 491.71 195.404 491.71 193.584C491.71 191.764 491.388 190.322 490.744 189.258C490.1 188.194 489.148 187.662 487.888 187.662C486.6 187.662 485.634 188.194 484.99 189.258C484.374 190.322 484.066 191.764 484.066 193.584C484.066 195.404 484.374 196.846 484.99 197.91C485.634 198.974 486.6 199.506 487.888 199.506ZM502.239 204V174.558H508.245V191.442H508.413L515.007 183.168H521.727L514.419 191.736L522.273 204H515.595L510.891 195.894L508.245 198.876V204H502.239ZM525.875 212.148L524.615 208.872C526.183 208.312 527.373 207.584 528.185 206.688C528.997 205.792 529.389 204.812 529.361 203.748H529.025C528.045 203.748 527.177 203.454 526.421 202.866C525.665 202.25 525.287 201.382 525.287 200.262C525.287 199.198 525.665 198.344 526.421 197.7C527.177 197.056 528.087 196.734 529.151 196.734C530.551 196.734 531.615 197.252 532.343 198.288C533.071 199.296 533.435 200.724 533.435 202.572C533.435 204.896 532.791 206.884 531.503 208.536C530.215 210.216 528.339 211.42 525.875 212.148ZM559.013 204.504C557.137 204.504 555.373 204.21 553.721 203.622C552.097 203.006 550.683 202.11 549.479 200.934C548.275 199.758 547.323 198.302 546.623 196.566C545.951 194.802 545.615 192.772 545.615 190.476C545.615 188.208 545.965 186.192 546.665 184.428C547.365 182.636 548.317 181.124 549.521 179.892C550.753 178.66 552.181 177.722 553.805 177.078C555.429 176.434 557.151 176.112 558.971 176.112C560.959 176.112 562.667 176.476 564.095 177.204C565.523 177.932 566.685 178.758 567.581 179.682L564.347 183.63C563.647 183.014 562.905 182.496 562.121 182.076C561.337 181.656 560.357 181.446 559.181 181.446C558.117 181.446 557.137 181.656 556.241 182.076C555.373 182.468 554.617 183.042 553.973 183.798C553.329 184.554 552.825 185.478 552.461 186.57C552.125 187.662 551.957 188.894 551.957 190.266C551.957 193.094 552.587 195.292 553.847 196.86C555.135 198.4 557.067 199.17 559.643 199.17C560.203 199.17 560.749 199.1 561.281 198.96C561.813 198.82 562.247 198.61 562.583 198.33V193.626H558.047V188.586H568.043V201.186C567.091 202.11 565.831 202.894 564.263 203.538C562.695 204.182 560.945 204.504 559.013 204.504ZM582.142 204.504C580.826 204.504 579.552 204.266 578.32 203.79C577.088 203.286 575.996 202.572 575.044 201.648C574.12 200.724 573.378 199.59 572.818 198.246C572.258 196.874 571.978 195.32 571.978 193.584C571.978 191.848 572.258 190.308 572.818 188.964C573.378 187.592 574.12 186.444 575.044 185.52C575.996 184.596 577.088 183.896 578.32 183.42C579.552 182.916 580.826 182.664 582.142 182.664C583.458 182.664 584.718 182.916 585.922 183.42C587.154 183.896 588.232 184.596 589.156 185.52C590.108 186.444 590.864 187.592 591.424 188.964C591.984 190.308 592.264 191.848 592.264 193.584C592.264 195.32 591.984 196.874 591.424 198.246C590.864 199.59 590.108 200.724 589.156 201.648C588.232 202.572 587.154 203.286 585.922 203.79C584.718 204.266 583.458 204.504 582.142 204.504ZM582.142 199.506C583.402 199.506 584.354 198.974 584.998 197.91C585.642 196.846 585.964 195.404 585.964 193.584C585.964 191.764 585.642 190.322 584.998 189.258C584.354 188.194 583.402 187.662 582.142 187.662C580.854 187.662 579.888 188.194 579.244 189.258C578.628 190.322 578.32 191.764 578.32 193.584C578.32 195.404 578.628 196.846 579.244 197.91C579.888 198.974 580.854 199.506 582.142 199.506ZM605.439 204.504C604.123 204.504 602.849 204.266 601.617 203.79C600.385 203.286 599.293 202.572 598.341 201.648C597.417 200.724 596.675 199.59 596.115 198.246C595.555 196.874 595.275 195.32 595.275 193.584C595.275 191.848 595.555 190.308 596.115 188.964C596.675 187.592 597.417 186.444 598.341 185.52C599.293 184.596 600.385 183.896 601.617 183.42C602.849 182.916 604.123 182.664 605.439 182.664C606.755 182.664 608.015 182.916 609.219 183.42C610.451 183.896 611.529 184.596 612.453 185.52C613.405 186.444 614.161 187.592 614.721 188.964C615.281 190.308 615.561 191.848 615.561 193.584C615.561 195.32 615.281 196.874 614.721 198.246C614.161 199.59 613.405 200.724 612.453 201.648C611.529 202.572 610.451 203.286 609.219 203.79C608.015 204.266 606.755 204.504 605.439 204.504ZM605.439 199.506C606.699 199.506 607.651 198.974 608.295 197.91C608.939 196.846 609.261 195.404 609.261 193.584C609.261 191.764 608.939 190.322 608.295 189.258C607.651 188.194 606.699 187.662 605.439 187.662C604.151 187.662 603.185 188.194 602.541 189.258C601.925 190.322 601.617 191.764 601.617 193.584C601.617 195.404 601.925 196.846 602.541 197.91C603.185 198.974 604.151 199.506 605.439 199.506ZM627.224 212.862C625.992 212.862 624.844 212.75 623.78 212.526C622.744 212.33 621.82 212.022 621.008 211.602C620.224 211.182 619.608 210.636 619.16 209.964C618.712 209.292 618.488 208.494 618.488 207.57C618.488 205.89 619.482 204.49 621.47 203.37V203.202C620.91 202.838 620.448 202.376 620.084 201.816C619.72 201.256 619.538 200.542 619.538 199.674C619.538 198.918 619.762 198.204 620.21 197.532C620.658 196.832 621.218 196.244 621.89 195.768V195.6C621.162 195.096 620.504 194.382 619.916 193.458C619.356 192.506 619.076 191.414 619.076 190.182C619.076 188.922 619.314 187.83 619.79 186.906C620.266 185.954 620.896 185.17 621.68 184.554C622.492 183.91 623.416 183.434 624.452 183.126C625.488 182.818 626.566 182.664 627.686 182.664C628.918 182.664 629.996 182.832 630.92 183.168H638.522V187.662H635.204C635.4 187.97 635.554 188.362 635.666 188.838C635.806 189.314 635.876 189.832 635.876 190.392C635.876 191.596 635.666 192.646 635.246 193.542C634.826 194.41 634.238 195.138 633.482 195.726C632.754 196.286 631.886 196.706 630.878 196.986C629.898 197.266 628.834 197.406 627.686 197.406C626.874 197.406 626.034 197.266 625.166 196.986C624.886 197.21 624.69 197.434 624.578 197.658C624.466 197.882 624.41 198.176 624.41 198.54C624.41 199.072 624.634 199.464 625.082 199.716C625.558 199.968 626.384 200.094 627.56 200.094H630.92C633.496 200.094 635.456 200.514 636.8 201.354C638.172 202.166 638.858 203.51 638.858 205.386C638.858 206.478 638.578 207.472 638.018 208.368C637.486 209.292 636.716 210.076 635.708 210.72C634.7 211.392 633.482 211.91 632.054 212.274C630.626 212.666 629.016 212.862 627.224 212.862ZM627.686 193.668C628.498 193.668 629.17 193.388 629.702 192.828C630.262 192.24 630.542 191.358 630.542 190.182C630.542 189.09 630.262 188.264 629.702 187.704C629.17 187.116 628.498 186.822 627.686 186.822C626.874 186.822 626.188 187.102 625.628 187.662C625.096 188.222 624.83 189.062 624.83 190.182C624.83 191.358 625.096 192.24 625.628 192.828C626.188 193.388 626.874 193.668 627.686 193.668ZM628.19 208.998C629.59 208.998 630.738 208.746 631.634 208.242C632.53 207.766 632.978 207.164 632.978 206.436C632.978 205.792 632.698 205.358 632.138 205.134C631.606 204.91 630.822 204.798 629.786 204.798H627.644C626.916 204.798 626.328 204.77 625.88 204.714C625.432 204.686 625.04 204.63 624.704 204.546C623.948 205.218 623.57 205.904 623.57 206.604C623.57 207.388 623.99 207.976 624.83 208.368C625.67 208.788 626.79 208.998 628.19 208.998ZM647.895 204.504C646.831 204.504 645.935 204.336 645.207 204C644.479 203.664 643.891 203.202 643.443 202.614C643.023 201.998 642.715 201.27 642.519 200.43C642.323 199.562 642.225 198.596 642.225 197.532V174.558H648.399V197.784C648.399 198.428 648.511 198.876 648.735 199.128C648.987 199.38 649.239 199.506 649.491 199.506C649.631 199.506 649.743 199.506 649.827 199.506C649.939 199.506 650.079 199.478 650.247 199.422L651.003 204C650.667 204.14 650.233 204.252 649.701 204.336C649.197 204.448 648.595 204.504 647.895 204.504ZM663.567 204.504C662.083 204.504 660.697 204.266 659.409 203.79C658.121 203.286 657.001 202.572 656.049 201.648C655.097 200.696 654.355 199.548 653.823 198.204C653.291 196.86 653.025 195.32 653.025 193.584C653.025 191.904 653.305 190.392 653.865 189.048C654.425 187.676 655.153 186.528 656.049 185.604C656.973 184.652 658.023 183.924 659.199 183.42C660.375 182.916 661.593 182.664 662.853 182.664C664.337 182.664 665.625 182.916 666.717 183.42C667.837 183.924 668.761 184.624 669.489 185.52C670.245 186.416 670.805 187.48 671.169 188.712C671.533 189.916 671.715 191.232 671.715 192.66C671.715 193.22 671.687 193.752 671.631 194.256C671.575 194.76 671.519 195.138 671.463 195.39H658.989C659.269 196.902 659.885 198.022 660.837 198.75C661.817 199.45 663.007 199.8 664.407 199.8C665.891 199.8 667.389 199.338 668.901 198.414L670.959 202.152C669.895 202.88 668.705 203.454 667.389 203.874C666.101 204.294 664.827 204.504 663.567 204.504ZM658.947 191.316H666.465C666.465 190.14 666.199 189.188 665.667 188.46C665.135 187.732 664.239 187.368 662.979 187.368C661.999 187.368 661.131 187.69 660.375 188.334C659.647 188.978 659.171 189.972 658.947 191.316ZM676.443 212.148L675.183 208.872C676.751 208.312 677.941 207.584 678.753 206.688C679.565 205.792 679.957 204.812 679.929 203.748H679.593C678.613 203.748 677.745 203.454 676.989 202.866C676.233 202.25 675.855 201.382 675.855 200.262C675.855 199.198 676.233 198.344 676.989 197.7C677.745 197.056 678.655 196.734 679.719 196.734C681.119 196.734 682.183 197.252 682.911 198.288C683.639 199.296 684.003 200.724 684.003 202.572C684.003 204.896 683.359 206.884 682.071 208.536C680.783 210.216 678.907 211.42 676.443 212.148ZM692.143 204.504C691.079 204.504 690.183 204.14 689.455 203.412C688.755 202.656 688.405 201.732 688.405 200.64C688.405 199.52 688.755 198.596 689.455 197.868C690.183 197.112 691.079 196.734 692.143 196.734C693.207 196.734 694.089 197.112 694.789 197.868C695.517 198.596 695.881 199.52 695.881 200.64C695.881 201.732 695.517 202.656 694.789 203.412C694.089 204.14 693.207 204.504 692.143 204.504ZM704.735 204.504C703.671 204.504 702.775 204.14 702.047 203.412C701.347 202.656 700.997 201.732 700.997 200.64C700.997 199.52 701.347 198.596 702.047 197.868C702.775 197.112 703.671 196.734 704.735 196.734C705.799 196.734 706.681 197.112 707.381 197.868C708.109 198.596 708.473 199.52 708.473 200.64C708.473 201.732 708.109 202.656 707.381 203.412C706.681 204.14 705.799 204.504 704.735 204.504ZM717.326 204.504C716.262 204.504 715.366 204.14 714.638 203.412C713.938 202.656 713.588 201.732 713.588 200.64C713.588 199.52 713.938 198.596 714.638 197.868C715.366 197.112 716.262 196.734 717.326 196.734C718.39 196.734 719.272 197.112 719.972 197.868C720.7 198.596 721.064 199.52 721.064 200.64C721.064 201.732 720.7 202.656 719.972 203.412C719.272 204.14 718.39 204.504 717.326 204.504ZM729.918 204.504C728.854 204.504 727.958 204.14 727.23 203.412C726.53 202.656 726.18 201.732 726.18 200.64C726.18 199.52 726.53 198.596 727.23 197.868C727.958 197.112 728.854 196.734 729.918 196.734C730.982 196.734 731.864 197.112 732.564 197.868C733.292 198.596 733.656 199.52 733.656 200.64C733.656 201.732 733.292 202.656 732.564 203.412C731.864 204.14 730.982 204.504 729.918 204.504ZM292.529 251.834C291.745 251.834 291.017 251.694 290.345 251.414C289.673 251.106 289.085 250.686 288.581 250.154C288.077 249.622 287.685 249.006 287.405 248.306C287.125 247.606 286.985 246.836 286.985 245.996C286.985 245.156 287.125 244.386 287.405 243.686C287.685 242.958 288.077 242.342 288.581 241.838C289.085 241.306 289.673 240.9 290.345 240.62C291.017 240.312 291.745 240.158 292.529 240.158C293.313 240.158 294.041 240.312 294.713 240.62C295.413 240.9 296.015 241.306 296.519 241.838C297.023 242.342 297.415 242.958 297.695 243.686C297.975 244.386 298.115 245.156 298.115 245.996C298.115 246.836 297.975 247.606 297.695 248.306C297.415 249.006 297.023 249.622 296.519 250.154C296.015 250.686 295.413 251.106 294.713 251.414C294.041 251.694 293.313 251.834 292.529 251.834ZM339.374 257.504C337.498 257.504 335.734 257.21 334.082 256.622C332.458 256.006 331.044 255.11 329.84 253.934C328.636 252.758 327.684 251.302 326.984 249.566C326.312 247.802 325.976 245.772 325.976 243.476C325.976 241.208 326.326 239.192 327.026 237.428C327.726 235.636 328.678 234.124 329.882 232.892C331.114 231.66 332.542 230.722 334.166 230.078C335.79 229.434 337.512 229.112 339.332 229.112C341.32 229.112 343.028 229.476 344.456 230.204C345.884 230.932 347.046 231.758 347.942 232.682L344.708 236.63C344.008 236.014 343.266 235.496 342.482 235.076C341.698 234.656 340.718 234.446 339.542 234.446C338.478 234.446 337.498 234.656 336.602 235.076C335.734 235.468 334.978 236.042 334.334 236.798C333.69 237.554 333.186 238.478 332.822 239.57C332.486 240.662 332.318 241.894 332.318 243.266C332.318 246.094 332.948 248.292 334.208 249.86C335.496 251.4 337.428 252.17 340.004 252.17C340.564 252.17 341.11 252.1 341.642 251.96C342.174 251.82 342.608 251.61 342.944 251.33V246.626H338.408V241.586H348.404V254.186C347.452 255.11 346.192 255.894 344.624 256.538C343.056 257.182 341.306 257.504 339.374 257.504ZM353.557 257V227.558H359.731V234.782L359.437 238.52C360.221 237.82 361.131 237.176 362.167 236.588C363.203 235.972 364.435 235.664 365.863 235.664C368.131 235.664 369.769 236.406 370.777 237.89C371.813 239.374 372.331 241.432 372.331 244.064V257H366.157V244.862C366.157 243.35 365.947 242.314 365.527 241.754C365.135 241.194 364.491 240.914 363.595 240.914C362.811 240.914 362.139 241.096 361.579 241.46C361.019 241.796 360.403 242.286 359.731 242.93V257H353.557ZM377.551 257V236.168H383.725V257H377.551ZM380.617 233.102C379.581 233.102 378.727 232.808 378.055 232.22C377.383 231.604 377.047 230.82 377.047 229.868C377.047 228.916 377.383 228.146 378.055 227.558C378.727 226.97 379.581 226.676 380.617 226.676C381.681 226.676 382.535 226.97 383.179 227.558C383.851 228.146 384.187 228.916 384.187 229.868C384.187 230.82 383.851 231.604 383.179 232.22C382.535 232.808 381.681 233.102 380.617 233.102ZM405.589 257.504C404.301 257.504 403.195 257.308 402.271 256.916C401.375 256.524 400.633 255.978 400.045 255.278C399.485 254.578 399.065 253.738 398.785 252.758C398.533 251.75 398.407 250.644 398.407 249.44V240.998H395.551V236.42L398.743 236.168L399.457 230.624H404.581V236.168H409.579V240.998H404.581V249.356C404.581 250.532 404.819 251.386 405.295 251.918C405.799 252.422 406.457 252.674 407.269 252.674C407.605 252.674 407.941 252.632 408.277 252.548C408.641 252.464 408.963 252.366 409.243 252.254L410.209 256.748C409.649 256.916 408.991 257.084 408.235 257.252C407.479 257.42 406.597 257.504 405.589 257.504ZM413.645 257V236.168H418.685L419.105 239.822H419.273C420.029 238.394 420.939 237.344 422.003 236.672C423.067 236 424.131 235.664 425.195 235.664C425.783 235.664 426.259 235.706 426.623 235.79C427.015 235.846 427.365 235.944 427.673 236.084L426.665 241.418C426.273 241.306 425.909 241.222 425.573 241.166C425.237 241.11 424.845 241.082 424.397 241.082C423.613 241.082 422.787 241.362 421.919 241.922C421.079 242.482 420.379 243.476 419.819 244.904V257H413.645ZM439.293 257.504C437.809 257.504 436.423 257.266 435.135 256.79C433.847 256.286 432.727 255.572 431.775 254.648C430.823 253.696 430.081 252.548 429.549 251.204C429.017 249.86 428.751 248.32 428.751 246.584C428.751 244.904 429.031 243.392 429.591 242.048C430.151 240.676 430.879 239.528 431.775 238.604C432.699 237.652 433.749 236.924 434.925 236.42C436.101 235.916 437.319 235.664 438.579 235.664C440.063 235.664 441.351 235.916 442.443 236.42C443.563 236.924 444.487 237.624 445.215 238.52C445.971 239.416 446.531 240.48 446.895 241.712C447.259 242.916 447.441 244.232 447.441 245.66C447.441 246.22 447.413 246.752 447.357 247.256C447.301 247.76 447.245 248.138 447.189 248.39H434.715C434.995 249.902 435.611 251.022 436.563 251.75C437.543 252.45 438.733 252.8 440.133 252.8C441.617 252.8 443.115 252.338 444.627 251.414L446.685 255.152C445.621 255.88 444.431 256.454 443.115 256.874C441.827 257.294 440.553 257.504 439.293 257.504ZM434.673 244.316H442.191C442.191 243.14 441.925 242.188 441.393 241.46C440.861 240.732 439.965 240.368 438.705 240.368C437.725 240.368 436.857 240.69 436.101 241.334C435.373 241.978 434.897 242.972 434.673 244.316ZM430.893 231.254L435.429 225.752H441.729L446.265 231.254L443.913 233.438L438.663 229.574H438.495L433.245 233.438L430.893 231.254ZM451.708 257V236.168H456.748L457.168 238.814H457.336C458.232 237.974 459.212 237.246 460.276 236.63C461.34 235.986 462.586 235.664 464.014 235.664C466.282 235.664 467.92 236.406 468.928 237.89C469.964 239.374 470.482 241.432 470.482 244.064V257H464.308V244.862C464.308 243.35 464.098 242.314 463.678 241.754C463.286 241.194 462.642 240.914 461.746 240.914C460.962 240.914 460.29 241.096 459.73 241.46C459.17 241.796 458.554 242.286 457.882 242.93V257H451.708ZM491.585 265.862C490.353 265.862 489.205 265.75 488.141 265.526C487.105 265.33 486.181 265.022 485.369 264.602C484.585 264.182 483.969 263.636 483.521 262.964C483.073 262.292 482.849 261.494 482.849 260.57C482.849 258.89 483.843 257.49 485.831 256.37V256.202C485.271 255.838 484.809 255.376 484.445 254.816C484.081 254.256 483.899 253.542 483.899 252.674C483.899 251.918 484.123 251.204 484.571 250.532C485.019 249.832 485.579 249.244 486.251 248.768V248.6C485.523 248.096 484.865 247.382 484.277 246.458C483.717 245.506 483.437 244.414 483.437 243.182C483.437 241.922 483.675 240.83 484.151 239.906C484.627 238.954 485.257 238.17 486.041 237.554C486.853 236.91 487.777 236.434 488.813 236.126C489.849 235.818 490.927 235.664 492.047 235.664C493.279 235.664 494.357 235.832 495.281 236.168H502.883V240.662H499.565C499.761 240.97 499.915 241.362 500.027 241.838C500.167 242.314 500.237 242.832 500.237 243.392C500.237 244.596 500.027 245.646 499.607 246.542C499.187 247.41 498.599 248.138 497.843 248.726C497.115 249.286 496.247 249.706 495.239 249.986C494.259 250.266 493.195 250.406 492.047 250.406C491.235 250.406 490.395 250.266 489.527 249.986C489.247 250.21 489.051 250.434 488.939 250.658C488.827 250.882 488.771 251.176 488.771 251.54C488.771 252.072 488.995 252.464 489.443 252.716C489.919 252.968 490.745 253.094 491.921 253.094H495.281C497.857 253.094 499.817 253.514 501.161 254.354C502.533 255.166 503.219 256.51 503.219 258.386C503.219 259.478 502.939 260.472 502.379 261.368C501.847 262.292 501.077 263.076 500.069 263.72C499.061 264.392 497.843 264.91 496.415 265.274C494.987 265.666 493.377 265.862 491.585 265.862ZM492.047 246.668C492.859 246.668 493.531 246.388 494.063 245.828C494.623 245.24 494.903 244.358 494.903 243.182C494.903 242.09 494.623 241.264 494.063 240.704C493.531 240.116 492.859 239.822 492.047 239.822C491.235 239.822 490.549 240.102 489.989 240.662C489.457 241.222 489.191 242.062 489.191 243.182C489.191 244.358 489.457 245.24 489.989 245.828C490.549 246.388 491.235 246.668 492.047 246.668ZM492.551 261.998C493.951 261.998 495.099 261.746 495.995 261.242C496.891 260.766 497.339 260.164 497.339 259.436C497.339 258.792 497.059 258.358 496.499 258.134C495.967 257.91 495.183 257.798 494.147 257.798H492.005C491.277 257.798 490.689 257.77 490.241 257.714C489.793 257.686 489.401 257.63 489.065 257.546C488.309 258.218 487.931 258.904 487.931 259.604C487.931 260.388 488.351 260.976 489.191 261.368C490.031 261.788 491.151 261.998 492.551 261.998ZM506.586 257V236.168H512.76V257H506.586ZM509.652 233.102C508.616 233.102 507.762 232.808 507.09 232.22C506.418 231.604 506.082 230.82 506.082 229.868C506.082 228.916 506.418 228.146 507.09 227.558C507.762 226.97 508.616 226.676 509.652 226.676C510.716 226.676 511.57 226.97 512.214 227.558C512.886 228.146 513.222 228.916 513.222 229.868C513.222 230.82 512.886 231.604 512.214 232.22C511.57 232.808 510.716 233.102 509.652 233.102ZM523.444 257.504C522.492 257.504 521.624 257.336 520.84 257C520.084 256.692 519.44 256.258 518.908 255.698C518.376 255.11 517.956 254.438 517.648 253.682C517.368 252.926 517.228 252.1 517.228 251.204C517.228 249.02 518.152 247.312 520 246.08C521.848 244.848 524.83 244.022 528.946 243.602C528.89 242.678 528.61 241.95 528.106 241.418C527.63 240.858 526.818 240.578 525.67 240.578C524.774 240.578 523.878 240.746 522.982 241.082C522.114 241.418 521.176 241.88 520.168 242.468L517.942 238.394C519.286 237.582 520.686 236.924 522.142 236.42C523.626 235.916 525.194 235.664 526.846 235.664C529.534 235.664 531.578 236.434 532.978 237.974C534.406 239.486 535.12 241.852 535.12 245.072V257H530.08L529.66 254.858H529.492C528.596 255.642 527.658 256.286 526.678 256.79C525.698 257.266 524.62 257.504 523.444 257.504ZM525.544 252.716C526.244 252.716 526.846 252.562 527.35 252.254C527.854 251.946 528.386 251.512 528.946 250.952V247.298C526.762 247.606 525.25 248.054 524.41 248.642C523.57 249.23 523.15 249.93 523.15 250.742C523.15 251.414 523.36 251.918 523.78 252.254C524.228 252.562 524.816 252.716 525.544 252.716ZM522.646 233.228L520.672 231.044L524.578 227.18H529.45L533.356 231.044L531.382 233.228L527.098 230.498H526.93L522.646 233.228ZM532.054 228.356L535.372 223.022L538.648 225.164L534.406 230.204L532.054 228.356ZM542.652 265.148C542.008 265.148 541.462 265.106 541.014 265.022C540.566 264.966 540.132 264.868 539.712 264.728L540.804 260.024C541 260.08 541.224 260.136 541.476 260.192C541.728 260.248 541.966 260.276 542.19 260.276C543.226 260.276 544.024 260.024 544.584 259.52C545.144 259.016 545.564 258.358 545.844 257.546L546.138 256.454L538.116 236.168H544.332L547.314 245.114C547.622 246.066 547.902 247.032 548.154 248.012C548.406 248.992 548.672 250 548.952 251.036H549.12C549.344 250.056 549.568 249.076 549.792 248.096C550.044 247.088 550.296 246.094 550.548 245.114L553.068 236.168H558.99L551.766 257.21C551.262 258.526 550.73 259.674 550.17 260.654C549.638 261.662 549.008 262.488 548.28 263.132C547.58 263.804 546.768 264.308 545.844 264.644C544.948 264.98 543.884 265.148 542.652 265.148ZM565.983 247.298C565.843 246.346 565.871 245.478 566.067 244.694C566.291 243.91 566.599 243.182 566.991 242.51C567.383 241.838 567.817 241.222 568.293 240.662C568.797 240.102 569.273 239.57 569.721 239.066C570.169 238.534 570.533 238.03 570.813 237.554C571.121 237.05 571.275 236.532 571.275 236C571.275 235.132 571.009 234.474 570.477 234.026C569.973 233.578 569.301 233.354 568.461 233.354C567.677 233.354 566.977 233.536 566.361 233.9C565.773 234.264 565.199 234.726 564.639 235.286L561.237 232.178C562.217 231.03 563.379 230.106 564.723 229.406C566.095 228.706 567.607 228.356 569.259 228.356C570.379 228.356 571.415 228.496 572.367 228.776C573.347 229.056 574.187 229.49 574.887 230.078C575.615 230.666 576.175 231.422 576.567 232.346C576.987 233.242 577.197 234.306 577.197 235.538C577.197 236.406 577.043 237.19 576.735 237.89C576.427 238.562 576.035 239.192 575.559 239.78C575.111 240.368 574.621 240.942 574.089 241.502C573.585 242.034 573.109 242.594 572.661 243.182C572.241 243.77 571.905 244.4 571.653 245.072C571.401 245.716 571.317 246.458 571.401 247.298H565.983ZM568.671 257.504C567.607 257.504 566.725 257.14 566.025 256.412C565.325 255.656 564.975 254.732 564.975 253.64C564.975 252.52 565.325 251.596 566.025 250.868C566.725 250.112 567.607 249.734 568.671 249.734C569.735 249.734 570.617 250.112 571.317 250.868C572.045 251.596 572.409 252.52 572.409 253.64C572.409 254.732 572.045 255.656 571.317 256.412C570.617 257.14 569.735 257.504 568.671 257.504ZM238.429 304.834C237.645 304.834 236.917 304.694 236.245 304.414C235.573 304.106 234.985 303.686 234.481 303.154C233.977 302.622 233.585 302.006 233.305 301.306C233.025 300.606 232.885 299.836 232.885 298.996C232.885 298.156 233.025 297.386 233.305 296.686C233.585 295.958 233.977 295.342 234.481 294.838C234.985 294.306 235.573 293.9 236.245 293.62C236.917 293.312 237.645 293.158 238.429 293.158C239.213 293.158 239.941 293.312 240.613 293.62C241.313 293.9 241.915 294.306 242.419 294.838C242.923 295.342 243.315 295.958 243.595 296.686C243.875 297.386 244.015 298.156 244.015 298.996C244.015 299.836 243.875 300.606 243.595 301.306C243.315 302.006 242.923 302.622 242.419 303.154C241.915 303.686 241.313 304.106 240.613 304.414C239.941 304.694 239.213 304.834 238.429 304.834ZM285.274 310.504C283.398 310.504 281.634 310.21 279.982 309.622C278.358 309.006 276.944 308.11 275.74 306.934C274.536 305.758 273.584 304.302 272.884 302.566C272.212 300.802 271.876 298.772 271.876 296.476C271.876 294.208 272.226 292.192 272.926 290.428C273.626 288.636 274.578 287.124 275.782 285.892C277.014 284.66 278.442 283.722 280.066 283.078C281.69 282.434 283.412 282.112 285.232 282.112C287.22 282.112 288.928 282.476 290.356 283.204C291.784 283.932 292.946 284.758 293.842 285.682L290.608 289.63C289.908 289.014 289.166 288.496 288.382 288.076C287.598 287.656 286.618 287.446 285.442 287.446C284.378 287.446 283.398 287.656 282.502 288.076C281.634 288.468 280.878 289.042 280.234 289.798C279.59 290.554 279.086 291.478 278.722 292.57C278.386 293.662 278.218 294.894 278.218 296.266C278.218 299.094 278.848 301.292 280.108 302.86C281.396 304.4 283.328 305.17 285.904 305.17C286.464 305.17 287.01 305.1 287.542 304.96C288.074 304.82 288.508 304.61 288.844 304.33V299.626H284.308V294.586H294.304V307.186C293.352 308.11 292.092 308.894 290.524 309.538C288.956 310.182 287.206 310.504 285.274 310.504ZM305.716 310.504C303.448 310.504 301.796 309.762 300.76 308.278C299.752 306.794 299.248 304.736 299.248 302.104V289.168H305.422V301.306C305.422 302.818 305.632 303.854 306.052 304.414C306.472 304.974 307.13 305.254 308.026 305.254C308.81 305.254 309.468 305.072 310 304.708C310.532 304.344 311.106 303.756 311.722 302.944V289.168H313.654C314.046 289.14 314.438 289.084 314.83 289C315.25 288.888 315.614 288.692 315.922 288.412C316.258 288.132 316.524 287.754 316.72 287.278C316.944 286.774 317.056 286.116 317.056 285.304C317.056 284.828 316.986 284.394 316.846 284.002C316.706 283.582 316.566 283.218 316.426 282.91L320.962 280.936C321.298 281.356 321.592 281.93 321.844 282.658C322.096 283.358 322.222 284.1 322.222 284.884C322.222 286.592 321.788 287.95 320.92 288.958C320.08 289.966 319.072 290.666 317.896 291.058V310H312.856L312.394 307.102H312.268C311.372 308.166 310.406 309.006 309.37 309.622C308.362 310.21 307.144 310.504 305.716 310.504ZM306.43 286.144L305.926 283.708C306.458 283.596 306.906 283.442 307.27 283.246C307.634 283.022 307.816 282.686 307.816 282.238C307.816 281.734 307.564 281.342 307.06 281.062C306.556 280.754 305.688 280.558 304.456 280.474L304.834 276.694C306.206 276.722 307.368 276.876 308.32 277.156C309.272 277.408 310.042 277.758 310.63 278.206C311.218 278.626 311.638 279.144 311.89 279.76C312.17 280.376 312.31 281.048 312.31 281.776C312.31 282.504 312.142 283.134 311.806 283.666C311.498 284.17 311.078 284.604 310.546 284.968C310.014 285.304 309.384 285.57 308.656 285.766C307.956 285.962 307.214 286.088 306.43 286.144ZM324.395 310V289.168H330.569V310H324.395ZM327.461 286.102C326.425 286.102 325.571 285.808 324.899 285.22C324.227 284.604 323.891 283.82 323.891 282.868C323.891 281.916 324.227 281.146 324.899 280.558C325.571 279.97 326.425 279.676 327.461 279.676C328.525 279.676 329.379 279.97 330.023 280.558C330.695 281.146 331.031 281.916 331.031 282.868C331.031 283.82 330.695 284.604 330.023 285.22C329.379 285.808 328.525 286.102 327.461 286.102ZM349.199 310L342.185 289.168H348.401L351.089 298.996C351.369 300.032 351.635 301.096 351.887 302.188C352.167 303.252 352.447 304.33 352.727 305.422H352.895C353.147 304.33 353.399 303.252 353.651 302.188C353.931 301.096 354.211 300.032 354.491 298.996L357.221 289.168H363.143L356.339 310H349.199ZM370.825 310.504C369.873 310.504 369.005 310.336 368.221 310C367.465 309.692 366.821 309.258 366.289 308.698C365.757 308.11 365.337 307.438 365.029 306.682C364.749 305.926 364.609 305.1 364.609 304.204C364.609 302.02 365.533 300.312 367.381 299.08C369.229 297.848 372.211 297.022 376.327 296.602C376.271 295.678 375.991 294.95 375.487 294.418C375.011 293.858 374.199 293.578 373.051 293.578C372.155 293.578 371.259 293.746 370.363 294.082C369.495 294.418 368.557 294.88 367.549 295.468L365.323 291.394C366.667 290.582 368.067 289.924 369.523 289.42C371.007 288.916 372.575 288.664 374.227 288.664C376.915 288.664 378.959 289.434 380.359 290.974C381.787 292.486 382.501 294.852 382.501 298.072V310H377.461L377.041 307.858H376.873C375.977 308.642 375.039 309.286 374.059 309.79C373.079 310.266 372.001 310.504 370.825 310.504ZM372.925 305.716C373.625 305.716 374.227 305.562 374.731 305.254C375.235 304.946 375.767 304.512 376.327 303.952V300.298C374.143 300.606 372.631 301.054 371.791 301.642C370.951 302.23 370.531 302.93 370.531 303.742C370.531 304.414 370.741 304.918 371.161 305.254C371.609 305.562 372.197 305.716 372.925 305.716ZM373.975 285.976L366.373 279.382L370.531 275.308L376.999 282.952L373.975 285.976ZM396.669 310.504C395.353 310.504 394.079 310.266 392.847 309.79C391.615 309.286 390.523 308.572 389.571 307.648C388.647 306.724 387.905 305.59 387.345 304.246C386.785 302.874 386.505 301.32 386.505 299.584C386.505 297.848 386.785 296.308 387.345 294.964C387.905 293.592 388.647 292.444 389.571 291.52C390.523 290.596 391.615 289.896 392.847 289.42C394.079 288.916 395.353 288.664 396.669 288.664C397.985 288.664 399.245 288.916 400.449 289.42C401.681 289.896 402.759 290.596 403.683 291.52C404.635 292.444 405.391 293.592 405.951 294.964C406.511 296.308 406.791 297.848 406.791 299.584C406.791 301.32 406.511 302.874 405.951 304.246C405.391 305.59 404.635 306.724 403.683 307.648C402.759 308.572 401.681 309.286 400.449 309.79C399.245 310.266 397.985 310.504 396.669 310.504ZM396.669 305.506C397.929 305.506 398.881 304.974 399.525 303.91C400.169 302.846 400.491 301.404 400.491 299.584C400.491 297.764 400.169 296.322 399.525 295.258C398.881 294.194 397.929 293.662 396.669 293.662C395.381 293.662 394.415 294.194 393.771 295.258C393.155 296.322 392.847 297.764 392.847 299.584C392.847 301.404 393.155 302.846 393.771 303.91C394.415 304.974 395.381 305.506 396.669 305.506ZM419.932 310V282.616H426.694L431.104 294.796C431.384 295.608 431.65 296.448 431.902 297.316C432.154 298.156 432.42 298.996 432.7 299.836H432.868C433.148 298.996 433.4 298.156 433.624 297.316C433.876 296.448 434.142 295.608 434.422 294.796L438.748 282.616H445.468V310H439.84V299.962C439.84 299.29 439.868 298.548 439.924 297.736C439.98 296.924 440.05 296.112 440.134 295.3C440.218 294.46 440.302 293.648 440.386 292.864C440.47 292.052 440.554 291.31 440.638 290.638H440.47L438.244 297.148L434.338 307.606H430.936L427.03 297.148L424.846 290.638H424.678C424.762 291.31 424.846 292.052 424.93 292.864C425.014 293.648 425.098 294.46 425.182 295.3C425.266 296.112 425.336 296.924 425.392 297.736C425.448 298.548 425.476 299.29 425.476 299.962V310H419.932ZM460.744 310.504C459.26 310.504 457.874 310.266 456.586 309.79C455.298 309.286 454.178 308.572 453.226 307.648C452.274 306.696 451.532 305.548 451 304.204C450.468 302.86 450.202 301.32 450.202 299.584C450.202 297.904 450.482 296.392 451.042 295.048C451.602 293.676 452.33 292.528 453.226 291.604C454.15 290.652 455.2 289.924 456.376 289.42C457.552 288.916 458.77 288.664 460.03 288.664C461.514 288.664 462.802 288.916 463.894 289.42C465.014 289.924 465.938 290.624 466.666 291.52C467.422 292.416 467.982 293.48 468.346 294.712C468.71 295.916 468.892 297.232 468.892 298.66C468.892 299.22 468.864 299.752 468.808 300.256C468.752 300.76 468.696 301.138 468.64 301.39H456.166C456.446 302.902 457.062 304.022 458.014 304.75C458.994 305.45 460.184 305.8 461.584 305.8C463.068 305.8 464.566 305.338 466.078 304.414L468.136 308.152C467.072 308.88 465.882 309.454 464.566 309.874C463.278 310.294 462.004 310.504 460.744 310.504ZM456.124 297.316H463.642C463.642 296.14 463.376 295.188 462.844 294.46C462.312 293.732 461.416 293.368 460.156 293.368C459.176 293.368 458.308 293.69 457.552 294.334C456.824 294.978 456.348 295.972 456.124 297.316ZM479.291 310.504C477.919 310.504 476.505 310.238 475.049 309.706C473.621 309.174 472.375 308.474 471.311 307.606L474.083 303.742C475.035 304.47 475.945 305.016 476.813 305.38C477.681 305.744 478.563 305.926 479.459 305.926C480.383 305.926 481.055 305.772 481.475 305.464C481.895 305.156 482.105 304.722 482.105 304.162C482.105 303.826 481.979 303.532 481.727 303.28C481.503 303 481.181 302.748 480.761 302.524C480.369 302.3 479.921 302.104 479.417 301.936C478.913 301.74 478.395 301.53 477.863 301.306C477.219 301.054 476.575 300.76 475.931 300.424C475.287 300.088 474.699 299.682 474.167 299.206C473.635 298.702 473.201 298.128 472.865 297.484C472.529 296.812 472.361 296.042 472.361 295.174C472.361 294.222 472.543 293.34 472.907 292.528C473.299 291.716 473.845 291.03 474.545 290.47C475.245 289.91 476.085 289.476 477.065 289.168C478.045 288.832 479.137 288.664 480.341 288.664C481.937 288.664 483.337 288.944 484.541 289.504C485.745 290.036 486.795 290.638 487.691 291.31L484.919 295.006C484.163 294.446 483.421 294.012 482.693 293.704C481.965 293.396 481.237 293.242 480.509 293.242C478.941 293.242 478.157 293.788 478.157 294.88C478.157 295.216 478.269 295.51 478.493 295.762C478.717 295.986 479.011 296.196 479.375 296.392C479.767 296.588 480.201 296.784 480.677 296.98C481.181 297.148 481.699 297.33 482.231 297.526C482.903 297.778 483.561 298.072 484.205 298.408C484.877 298.716 485.479 299.108 486.011 299.584C486.571 300.06 487.019 300.648 487.355 301.348C487.691 302.02 487.859 302.832 487.859 303.784C487.859 304.736 487.677 305.618 487.313 306.43C486.949 307.242 486.403 307.956 485.675 308.572C484.947 309.16 484.051 309.636 482.987 310C481.923 310.336 480.691 310.504 479.291 310.504ZM497.912 310.504C496.54 310.504 495.126 310.238 493.67 309.706C492.242 309.174 490.996 308.474 489.932 307.606L492.704 303.742C493.656 304.47 494.566 305.016 495.434 305.38C496.302 305.744 497.184 305.926 498.08 305.926C499.004 305.926 499.676 305.772 500.096 305.464C500.516 305.156 500.726 304.722 500.726 304.162C500.726 303.826 500.6 303.532 500.348 303.28C500.124 303 499.802 302.748 499.382 302.524C498.99 302.3 498.542 302.104 498.038 301.936C497.534 301.74 497.016 301.53 496.484 301.306C495.84 301.054 495.196 300.76 494.552 300.424C493.908 300.088 493.32 299.682 492.788 299.206C492.256 298.702 491.822 298.128 491.486 297.484C491.15 296.812 490.982 296.042 490.982 295.174C490.982 294.222 491.164 293.34 491.528 292.528C491.92 291.716 492.466 291.03 493.166 290.47C493.866 289.91 494.706 289.476 495.686 289.168C496.666 288.832 497.758 288.664 498.962 288.664C500.558 288.664 501.958 288.944 503.162 289.504C504.366 290.036 505.416 290.638 506.312 291.31L503.54 295.006C502.784 294.446 502.042 294.012 501.314 293.704C500.586 293.396 499.858 293.242 499.13 293.242C497.562 293.242 496.778 293.788 496.778 294.88C496.778 295.216 496.89 295.51 497.114 295.762C497.338 295.986 497.632 296.196 497.996 296.392C498.388 296.588 498.822 296.784 499.298 296.98C499.802 297.148 500.32 297.33 500.852 297.526C501.524 297.778 502.182 298.072 502.826 298.408C503.498 298.716 504.1 299.108 504.632 299.584C505.192 300.06 505.64 300.648 505.976 301.348C506.312 302.02 506.48 302.832 506.48 303.784C506.48 304.736 506.298 305.618 505.934 306.43C505.57 307.242 505.024 307.956 504.296 308.572C503.568 309.16 502.672 309.636 501.608 310C500.544 310.336 499.312 310.504 497.912 310.504ZM519.725 310.504C518.241 310.504 516.855 310.266 515.567 309.79C514.279 309.286 513.159 308.572 512.207 307.648C511.255 306.696 510.513 305.548 509.981 304.204C509.449 302.86 509.183 301.32 509.183 299.584C509.183 297.904 509.463 296.392 510.023 295.048C510.583 293.676 511.311 292.528 512.207 291.604C513.131 290.652 514.181 289.924 515.357 289.42C516.533 288.916 517.751 288.664 519.011 288.664C520.495 288.664 521.783 288.916 522.875 289.42C523.995 289.924 524.919 290.624 525.647 291.52C526.403 292.416 526.963 293.48 527.327 294.712C527.691 295.916 527.873 297.232 527.873 298.66C527.873 299.22 527.845 299.752 527.789 300.256C527.733 300.76 527.677 301.138 527.621 301.39H515.147C515.427 302.902 516.043 304.022 516.995 304.75C517.975 305.45 519.165 305.8 520.565 305.8C522.049 305.8 523.547 305.338 525.059 304.414L527.117 308.152C526.053 308.88 524.863 309.454 523.547 309.874C522.259 310.294 520.985 310.504 519.725 310.504ZM515.105 297.316H522.623C522.623 296.14 522.357 295.188 521.825 294.46C521.293 293.732 520.397 293.368 519.137 293.368C518.157 293.368 517.289 293.69 516.533 294.334C515.805 294.978 515.329 295.972 515.105 297.316ZM532.139 310V289.168H537.179L537.599 291.814H537.767C538.663 290.974 539.643 290.246 540.707 289.63C541.771 288.986 543.017 288.664 544.445 288.664C546.713 288.664 548.351 289.406 549.359 290.89C550.395 292.374 550.913 294.432 550.913 297.064V310H544.739V297.862C544.739 296.35 544.529 295.314 544.109 294.754C543.717 294.194 543.073 293.914 542.177 293.914C541.393 293.914 540.721 294.096 540.161 294.46C539.601 294.796 538.985 295.286 538.313 295.93V310H532.139ZM563.608 318.862C562.376 318.862 561.228 318.75 560.164 318.526C559.128 318.33 558.204 318.022 557.392 317.602C556.608 317.182 555.992 316.636 555.544 315.964C555.096 315.292 554.872 314.494 554.872 313.57C554.872 311.89 555.866 310.49 557.854 309.37V309.202C557.294 308.838 556.832 308.376 556.468 307.816C556.104 307.256 555.922 306.542 555.922 305.674C555.922 304.918 556.146 304.204 556.594 303.532C557.042 302.832 557.602 302.244 558.274 301.768V301.6C557.546 301.096 556.888 300.382 556.3 299.458C555.74 298.506 555.46 297.414 555.46 296.182C555.46 294.922 555.698 293.83 556.174 292.906C556.65 291.954 557.28 291.17 558.064 290.554C558.876 289.91 559.8 289.434 560.836 289.126C561.872 288.818 562.95 288.664 564.07 288.664C565.302 288.664 566.38 288.832 567.304 289.168H574.906V293.662H571.588C571.784 293.97 571.938 294.362 572.05 294.838C572.19 295.314 572.26 295.832 572.26 296.392C572.26 297.596 572.05 298.646 571.63 299.542C571.21 300.41 570.622 301.138 569.866 301.726C569.138 302.286 568.27 302.706 567.262 302.986C566.282 303.266 565.218 303.406 564.07 303.406C563.258 303.406 562.418 303.266 561.55 302.986C561.27 303.21 561.074 303.434 560.962 303.658C560.85 303.882 560.794 304.176 560.794 304.54C560.794 305.072 561.018 305.464 561.466 305.716C561.942 305.968 562.768 306.094 563.944 306.094H567.304C569.88 306.094 571.84 306.514 573.184 307.354C574.556 308.166 575.242 309.51 575.242 311.386C575.242 312.478 574.962 313.472 574.402 314.368C573.87 315.292 573.1 316.076 572.092 316.72C571.084 317.392 569.866 317.91 568.438 318.274C567.01 318.666 565.4 318.862 563.608 318.862ZM564.07 299.668C564.882 299.668 565.554 299.388 566.086 298.828C566.646 298.24 566.926 297.358 566.926 296.182C566.926 295.09 566.646 294.264 566.086 293.704C565.554 293.116 564.882 292.822 564.07 292.822C563.258 292.822 562.572 293.102 562.012 293.662C561.48 294.222 561.214 295.062 561.214 296.182C561.214 297.358 561.48 298.24 562.012 298.828C562.572 299.388 563.258 299.668 564.07 299.668ZM564.574 314.998C565.974 314.998 567.122 314.746 568.018 314.242C568.914 313.766 569.362 313.164 569.362 312.436C569.362 311.792 569.082 311.358 568.522 311.134C567.99 310.91 567.206 310.798 566.17 310.798H564.028C563.3 310.798 562.712 310.77 562.264 310.714C561.816 310.686 561.424 310.63 561.088 310.546C560.332 311.218 559.954 311.904 559.954 312.604C559.954 313.388 560.374 313.976 561.214 314.368C562.054 314.788 563.174 314.998 564.574 314.998ZM587.196 310.504C585.712 310.504 584.326 310.266 583.038 309.79C581.75 309.286 580.63 308.572 579.678 307.648C578.726 306.696 577.984 305.548 577.452 304.204C576.92 302.86 576.654 301.32 576.654 299.584C576.654 297.904 576.934 296.392 577.494 295.048C578.054 293.676 578.782 292.528 579.678 291.604C580.602 290.652 581.652 289.924 582.828 289.42C584.004 288.916 585.222 288.664 586.482 288.664C587.966 288.664 589.254 288.916 590.346 289.42C591.466 289.924 592.39 290.624 593.118 291.52C593.874 292.416 594.434 293.48 594.798 294.712C595.162 295.916 595.344 297.232 595.344 298.66C595.344 299.22 595.316 299.752 595.26 300.256C595.204 300.76 595.148 301.138 595.092 301.39H582.618C582.898 302.902 583.514 304.022 584.466 304.75C585.446 305.45 586.636 305.8 588.036 305.8C589.52 305.8 591.018 305.338 592.53 304.414L594.588 308.152C593.524 308.88 592.334 309.454 591.018 309.874C589.73 310.294 588.456 310.504 587.196 310.504ZM582.576 297.316H590.094C590.094 296.14 589.828 295.188 589.296 294.46C588.764 293.732 587.868 293.368 586.608 293.368C585.628 293.368 584.76 293.69 584.004 294.334C583.276 294.978 582.8 295.972 582.576 297.316ZM599.61 310V289.168H604.65L605.07 292.822H605.238C605.994 291.394 606.904 290.344 607.968 289.672C609.032 289 610.096 288.664 611.16 288.664C611.748 288.664 612.224 288.706 612.588 288.79C612.98 288.846 613.33 288.944 613.638 289.084L612.63 294.418C612.238 294.306 611.874 294.222 611.538 294.166C611.202 294.11 610.81 294.082 610.362 294.082C609.578 294.082 608.752 294.362 607.884 294.922C607.044 295.482 606.344 296.476 605.784 297.904V310H599.61ZM620.082 300.298C619.942 299.346 619.97 298.478 620.166 297.694C620.39 296.91 620.698 296.182 621.09 295.51C621.482 294.838 621.916 294.222 622.392 293.662C622.896 293.102 623.372 292.57 623.82 292.066C624.268 291.534 624.632 291.03 624.912 290.554C625.22 290.05 625.374 289.532 625.374 289C625.374 288.132 625.108 287.474 624.576 287.026C624.072 286.578 623.4 286.354 622.56 286.354C621.776 286.354 621.076 286.536 620.46 286.9C619.872 287.264 619.298 287.726 618.738 288.286L615.336 285.178C616.316 284.03 617.478 283.106 618.822 282.406C620.194 281.706 621.706 281.356 623.358 281.356C624.478 281.356 625.514 281.496 626.466 281.776C627.446 282.056 628.286 282.49 628.986 283.078C629.714 283.666 630.274 284.422 630.666 285.346C631.086 286.242 631.296 287.306 631.296 288.538C631.296 289.406 631.142 290.19 630.834 290.89C630.526 291.562 630.134 292.192 629.658 292.78C629.21 293.368 628.72 293.942 628.188 294.502C627.684 295.034 627.208 295.594 626.76 296.182C626.34 296.77 626.004 297.4 625.752 298.072C625.5 298.716 625.416 299.458 625.5 300.298H620.082ZM622.77 310.504C621.706 310.504 620.824 310.14 620.124 309.412C619.424 308.656 619.074 307.732 619.074 306.64C619.074 305.52 619.424 304.596 620.124 303.868C620.824 303.112 621.706 302.734 622.77 302.734C623.834 302.734 624.716 303.112 625.416 303.868C626.144 304.596 626.508 305.52 626.508 306.64C626.508 307.732 626.144 308.656 625.416 309.412C624.716 310.14 623.834 310.504 622.77 310.504Z" fill="#C23616"/>
<path opacity="0.4" d="M143.37 571.658C168.991 556.364 189.771 521.228 66.5055 422.197C-56.7604 323.166 13.9148 132.498 154.6 63.634C295.285 -5.22956 555.246 -39.6614 787.716 95.0718C858.952 140.415 942.639 206.351 904.41 322.621C866.18 438.891 649.328 532.182 321.281 459.849C300.892 509.751 122.873 583.893 143.37 571.658Z" stroke="black" stroke-width="5"/>
</svg>
